<svg xmlns="http://www.w3.org/2000/svg" xml:space="preserve" viewBox="0 0 90 90">
  <path fill="#80876E" d="M48.695 16.313c-.598-.021-1.229.14-1.869.474-1.396.735-2.459.584-3.688 0-.652-.312-1.281-.462-1.875-.443-.996.032-1.881.547-2.543 1.625-.832 1.36-1.838 1.703-3.191 1.844-1.949.197-3.188 1.266-3.24 3.235-.041 1.598-.74 2.395-1.844 3.197-1.588 1.141-2.119 2.682-1.182 4.417.76 1.405.563 2.443 0 3.687-.803 1.787-.496 3.391 1.182 4.417 1.365.839 1.703 1.843 1.844 3.198.109 1.098.506 1.975 1.182 2.536l-5.379 9.303c-.309.527.119 1.182.729 1.12l5.682-.609 2.324 5.224c.25.563 1.025.604 1.332.072l6.828-11.812 6.824 11.812c.307.527 1.084.49 1.334-.072l2.316-5.224 5.688.609c.609.063 1.031-.593.73-1.12l-5.375-9.307c.672-.557 1.063-1.434 1.172-2.532.145-1.359.484-2.359 1.848-3.198 1.678-1.026 1.984-2.63 1.178-4.417-.557-1.244-.76-2.282 0-3.687.943-1.735.412-3.276-1.178-4.417-1.109-.803-1.801-1.599-1.848-3.197-.047-1.97-1.287-3.038-3.234-3.235-1.355-.141-2.359-.483-3.199-1.844-.661-1.079-1.552-1.62-2.548-1.656zm-3.713 6.27c5.479 0 9.922 4.443 9.922 9.916 0 5.48-4.443 9.922-9.922 9.922-5.475 0-9.918-4.442-9.918-9.922 0-5.473 4.444-9.916 9.918-9.916z"/>
  <path fill="#80876E" fill-rule="evenodd" d="M52.098 32.5c0 3.928-3.184 7.109-7.115 7.109-1.887 0-3.693-.744-5.027-2.078-1.332-1.333-2.082-3.145-2.082-5.032 0-1.885.75-3.692 2.082-5.025 1.334-1.333 3.141-2.084 5.027-2.084 3.931 0 7.115 3.183 7.115 7.11z" clip-rule="evenodd"/>
  <path fill="#80876E" d="M77.461 19.094c2.715 2.552 3.996 5.468 3.85 8.126-.146 2.64-1.725 4.963-4.172 6.03-2.447 1.074-4.615.719-6.197-.614-1.594-1.345-2.631-3.636-2.621-6.527.006-.588.443-.662.771-.542 2.178.823 3.979 1.526 5.484 2.928-.65-3.319.943-6.699 1.975-9.209.181-.443.629-.457.91-.192zm5.84 28.203c.838 3.63.281 6.765-1.324 8.891-1.588 2.115-4.188 3.172-6.816 2.699-2.631-.475-4.234-1.969-4.813-3.959-.578-2.005-.168-4.485 1.453-6.879.328-.491.738-.308.941-.021 1.35 1.891 2.459 3.479 2.934 5.479 1.301-3.119 4.504-5.041 6.754-6.558.402-.266.781-.032.871.348zm-5.793 14.458c-.797 3.64-2.645 6.235-5.004 7.473-2.34 1.224-5.141 1.063-7.318-.489-2.172-1.552-2.984-3.594-2.646-5.635.334-2.063 1.771-4.125 4.262-5.595.504-.301.797.043.859.386.41 2.287.729 4.193.297 6.209 2.516-2.267 6.234-2.631 8.916-3.032.474-.072.718.309.634.683z"/>
  <path fill="#80876E" fill-rule="evenodd" d="M48.41 73.797c0 1.886-1.537 3.423-3.428 3.423s-3.422-1.537-3.422-3.423c0-1.891 1.531-3.427 3.422-3.427s3.428 1.536 3.428 3.427z" clip-rule="evenodd"/>
  <path fill="#80876E" d="M71.086 23.813c-4.848-1.532-5.275-4.771-5.275-9.979 0-1.067.182-1.176 1-1.004 5.463 1.155 7.662 6.187 5.65 10.5-.332.701-.738.686-1.375.483zm11.443 8.421c2.088 3.09 2.697 6.213 1.969 8.771-.719 2.548-2.766 4.469-5.391 4.975-2.625.505-4.662-.313-5.912-1.964-1.26-1.661-1.77-4.125-1.125-6.942.137-.574.584-.547.875-.354 1.943 1.276 3.547 2.358 4.709 4.056.088-3.385 2.391-6.333 3.943-8.552.276-.391.719-.312.932.01zm-15.734 40.73c-2.412 2.838-5.256 4.265-7.916 4.256-2.646-.017-5.047-1.47-6.24-3.86s-.953-4.573.303-6.219c1.26-1.667 3.494-2.817 6.379-2.948.59-.031.688.406.578.746-.703 2.208-1.316 4.046-2.641 5.618 3.281-.817 6.74.605 9.297 1.5.453.163.49.609.24.907zm-54.287-53.87c-2.719 2.552-3.994 5.468-3.85 8.126.146 2.64 1.725 4.963 4.172 6.03 2.449 1.074 4.615.719 6.199-.614 1.594-1.345 2.629-3.636 2.619-6.527-.006-.588-.447-.662-.775-.542-2.172.823-3.975 1.526-5.484 2.928.656-3.319-.943-6.699-1.969-9.209-.184-.443-.631-.457-.912-.192zM6.67 47.297c-.84 3.63-.281 6.765 1.316 8.891 1.59 2.115 4.193 3.172 6.824 2.699 2.629-.475 4.234-1.969 4.807-3.959.578-2.005.166-4.485-1.453-6.879-.328-.491-.734-.308-.938-.021-1.354 1.891-2.459 3.479-2.932 5.479-1.303-3.119-4.512-5.041-6.762-6.558-.393-.266-.78-.032-.862.348zm5.785 14.458c.803 3.64 2.652 6.235 5.006 7.473 2.344 1.224 5.146 1.063 7.318-.489 2.176-1.552 2.984-3.594 2.65-5.635-.338-2.063-1.771-4.125-4.26-5.595-.506-.301-.797.043-.859.386-.412 2.287-.734 4.193-.297 6.209-2.521-2.267-6.24-2.631-8.918-3.032-.472-.072-.722.309-.64.683z"/>
  <path fill="#80876E" d="M18.883 23.813c4.844-1.532 5.275-4.771 5.275-9.979 0-1.067-.182-1.176-1-1.004-5.469 1.155-7.666 6.187-5.65 10.5.328.701.734.686 1.375.483zM7.436 32.234c-2.09 3.09-2.693 6.213-1.969 8.771.723 2.548 2.77 4.469 5.395 4.975 2.625.505 4.656-.313 5.912-1.964 1.26-1.661 1.766-4.125 1.119-6.942-.129-.574-.578-.547-.869-.354-1.943 1.276-3.547 2.358-4.709 4.056-.094-3.385-2.391-6.333-3.941-8.552-.278-.391-.72-.312-.938.01zm15.734 40.73c2.41 2.838 5.26 4.265 7.922 4.256 2.645-.017 5.047-1.47 6.238-3.86 1.193-2.391.953-4.573-.301-6.219-1.266-1.667-3.496-2.817-6.387-2.948-.588-.031-.682.406-.578.746.709 2.208 1.318 4.046 2.646 5.618-3.287-.817-6.74.605-9.297 1.5-.452.163-.493.609-.243.907z"/>
</svg>
