<svg xmlns="http://www.w3.org/2000/svg" xml:space="preserve" viewBox="0 0 90 90">
  <path fill="#80876E" fill-rule="evenodd" d="M44.367 14.745c4.105-.136 7.855 2.604 8.85 6.729 1.131 4.713-1.775 9.432-6.521 10.557-4.75 1.125-9.494-1.776-10.625-6.495-1.135-4.713 1.775-9.428 6.521-10.557.594-.141 1.187-.213 1.775-.234zm-7.172 21.374c-3.65 0-7.584 3.475-8.381 7.532l-1.322 6.697c-.563 2.88-.291 4.719.807 6.109.912 1.156 2.537 2.09 4.984 2.839.959.297 1.225-.031 1.225-.755v-8.958c0-.85 1.615-1.344 1.615 0v7.948c0 1.333.219 2.517 2.01 2.88 2.172.437 4.557.645 6.844.645v-.036l.01.036c2.287 0 4.678-.208 6.846-.645 1.791-.364 2.016-1.547 2.016-2.88v-7.948c0-1.344 1.609-.85 1.609 0v8.958c0 .724.27 1.052 1.223.755 2.449-.749 4.074-1.683 4.984-2.839 1.1-1.391 1.375-3.229.809-6.109l-1.318-6.697c-.803-4.058-4.734-7.532-8.385-7.532H37.195z" clip-rule="evenodd"/>
  <path fill-rule="evenodd" d="M44.367 14.745c4.105-.136 7.855 2.604 8.85 6.729 1.131 4.713-1.775 9.432-6.521 10.557-4.75 1.125-9.494-1.776-10.625-6.495-1.135-4.713 1.775-9.428 6.521-10.557.594-.141 1.187-.213 1.775-.234zm-7.172 21.374c-3.65 0-7.584 3.475-8.381 7.532l-1.322 6.697c-.563 2.88-.291 4.719.807 6.109.912 1.156 2.537 2.09 4.984 2.839.959.297 1.225-.031 1.225-.755v-8.958c0-.85 1.615-1.344 1.615 0v7.948c0 1.333.219 2.517 2.01 2.88 2.172.437 4.557.645 6.844.645v-.036l.01.036c2.287 0 4.678-.208 6.846-.645 1.791-.364 2.016-1.547 2.016-2.88v-7.948c0-1.344 1.609-.85 1.609 0v8.958c0 .724.27 1.052 1.223.755 2.449-.749 4.074-1.683 4.984-2.839 1.1-1.391 1.375-3.229.809-6.109l-1.318-6.697c-.803-4.058-4.734-7.532-8.385-7.532H37.195z" clip-rule="evenodd"/>
  <path d="M77.461 19.094c2.715 2.552 3.996 5.468 3.85 8.126-.146 2.64-1.725 4.962-4.172 6.036-2.447 1.068-4.615.719-6.197-.62-1.594-1.345-2.631-3.631-2.621-6.527.006-.588.443-.662.771-.536 2.178.817 3.979 1.521 5.484 2.926-.65-3.323.943-6.703 1.975-9.208.181-.448.629-.462.91-.197zm5.84 28.203c.838 3.63.281 6.765-1.324 8.896-1.588 2.109-4.188 3.167-6.816 2.693-2.631-.475-4.234-1.969-4.813-3.959-.578-2.005-.168-4.485 1.453-6.879.328-.486.738-.303.941-.017 1.35 1.886 2.459 3.474 2.934 5.479 1.301-3.124 4.504-5.046 6.754-6.557.402-.271.781-.031.871.344zm-5.793 14.464c-.797 3.64-2.645 6.229-5.004 7.468-2.34 1.229-5.141 1.068-7.318-.489-2.172-1.552-2.984-3.588-2.646-5.635.334-2.057 1.771-4.121 4.262-5.595.504-.301.797.043.859.386.41 2.286.729 4.198.297 6.209 2.516-2.267 6.234-2.625 8.916-3.032.474-.068.718.308.634.688z"/>
  <circle cx="44.985" cy="73.797" r="3.425" fill-rule="evenodd" clip-rule="evenodd"/>
  <path d="M71.086 23.813c-4.848-1.532-5.275-4.771-5.275-9.975 0-1.072.182-1.182 1-1.009 5.463 1.155 7.662 6.186 5.65 10.5-.332.708-.738.686-1.375.484zm11.443 8.421c2.088 3.089 2.697 6.213 1.969 8.776-.719 2.543-2.766 4.464-5.391 4.97-2.625.505-4.662-.313-5.912-1.958-1.26-1.667-1.77-4.125-1.125-6.943.137-.573.584-.552.875-.358 1.943 1.276 3.547 2.358 4.709 4.056.088-3.38 2.391-6.328 3.943-8.547.276-.397.719-.313.932.004zm-15.734 40.73c-2.412 2.844-5.256 4.265-7.916 4.255-2.646-.011-5.047-1.469-6.24-3.86s-.953-4.573.303-6.219c1.26-1.661 3.494-2.812 6.379-2.948.59-.027.688.412.578.746-.703 2.213-1.316 4.046-2.641 5.624 3.281-.822 6.74.6 9.297 1.5.453.158.49.609.24.902zm-54.287-53.87c-2.719 2.552-3.994 5.468-3.85 8.126.146 2.64 1.725 4.962 4.172 6.036 2.449 1.068 4.615.719 6.199-.62 1.594-1.345 2.629-3.631 2.619-6.527-.006-.588-.447-.662-.775-.536-2.172.817-3.975 1.521-5.484 2.926.656-3.323-.943-6.703-1.969-9.208-.184-.448-.631-.462-.912-.197zM6.67 47.297c-.84 3.63-.281 6.765 1.316 8.896 1.59 2.109 4.193 3.167 6.824 2.693 2.629-.475 4.234-1.969 4.807-3.959.578-2.005.166-4.485-1.453-6.879-.328-.486-.734-.303-.938-.017-1.354 1.886-2.459 3.474-2.932 5.479-1.303-3.124-4.512-5.046-6.762-6.557-.393-.271-.78-.031-.862.344zm5.785 14.464c.803 3.64 2.652 6.229 5.006 7.468 2.344 1.229 5.146 1.068 7.318-.489 2.176-1.552 2.984-3.588 2.65-5.635-.338-2.057-1.771-4.121-4.26-5.595-.506-.301-.797.043-.859.386-.412 2.286-.734 4.198-.297 6.209-2.521-2.267-6.24-2.625-8.918-3.032-.472-.068-.722.308-.64.688z"/>
  <path d="M18.883 23.813c4.844-1.532 5.275-4.771 5.275-9.975 0-1.072-.182-1.182-1-1.009-5.469 1.155-7.666 6.186-5.65 10.5.328.708.734.686 1.375.484zM7.436 32.234c-2.09 3.089-2.693 6.213-1.969 8.776.723 2.543 2.77 4.464 5.395 4.97 2.625.505 4.656-.313 5.912-1.958 1.26-1.667 1.766-4.125 1.119-6.943-.129-.573-.578-.552-.869-.358-1.943 1.276-3.547 2.358-4.709 4.056-.094-3.38-2.391-6.328-3.941-8.547-.278-.397-.72-.313-.938.004zm15.734 40.73c2.41 2.844 5.26 4.265 7.922 4.255 2.645-.011 5.047-1.469 6.238-3.86 1.193-2.391.953-4.573-.301-6.219-1.266-1.661-3.496-2.812-6.387-2.948-.588-.027-.682.412-.578.746.709 2.213 1.318 4.046 2.646 5.624-3.287-.822-6.74.6-9.297 1.5-.452.158-.493.609-.243.902z"/>
</svg>