<svg xmlns="http://www.w3.org/2000/svg" xml:space="preserve" viewBox="0 0 90 90">
  <path d="M44.98 20.053c-11.64 0-21.083 9.437-21.083 21.083 0 11.64 9.438 21.084 21.083 21.084 11.647 0 21.084-9.444 21.084-21.084 0-11.646-9.437-21.083-21.084-21.083zm4.741 2.749c6.896 1.776 12.26 7.328 13.76 14.333-.489.322-1.291.374-2.505-.912-2.276-2.406-2.066.865-.801 1.417 1.266.552 1.557 1.697.131 2.479-1.428.781.187 1.833-.412 2.776-2.521 2.442-2.317 3.85-2.36 6.667-.036 2.74-2.552 6.713-5.213 7.287-2.916.625-2.078-.458-2.146-4.687-.063-4.224.131-7.871-2.078-8.391-2.214-.521-3.968 1.822-5.078-2.991-1.104-4.812 3.578-8.328 6.833-7.354 3.25.979 5.853 1.629 4.489-.125-1.369-1.76-5.202-2.604-6.573-1.76-1.364.848-3.578.454-2.604-1.365.979-1.822 5.47-2.344 5.921-3.578.459-1.234-.864-.928-1.817-.516-.782.335-.479-3.529.453-3.28zm-5.61 1.151c-.511 1.199-.084 2.115-1.281 2.313-1.197.203-2.49.677-2.746 1.255-.307.713-.296 1.391-1.025.917-.385-.251-.975-1.23-.86-1.772.114-.547 1.12-.973-.167-1.744-1.285-.771 1.027-1.631 2.052-1.854 1.027-.23 4.423-.198 4.027.885zm-9.052 1.636c1.421.38 2.162.891 1.844 1.432-.319.541-1.683-.131-2.543-.156-.858-.036-2.67.948-2.317 2 .344 1.047 1.527.036 2.224-.453.896-.621 2.661-.083 2.567 1.312-.093 1.491-.75-.421-2.354 1.875-2.099 2.995-3.552 1.396-4.031 3.115-.073.265.068.718-.375 1.156-.338.344-1.021-.489-1.183-.458-.792.125-1.016 2.156-.344 2 .661-.162 1.396-.162 1.969 1.208.572 1.365.604.412 1.681.219 2.74-.479 4.901 2.043 6.709 3.844 1.572 1.579-.193 1.845-.355 3.371-.156 1.525-1.271.572-1.65 2.129-.235.949-1.271 1.678-1.371 2.412-.312 2.318-.598 3.505-2.822 1.525-.729-1.01.458-2.702.213-3.624-.155-.568.173-1.636-2.088-3.396-1.921-1.49.719-5.046-.063-4.99-1.745.136-1.167-1.547-3.245-2-.521-.113-.859-.432-1.078-.828.99-4.807 3.801-8.943 7.683-11.662.183-.178.648-.105.929-.031zm42.401-6.495c2.713 2.552 3.994 5.468 3.848 8.126-.15 2.64-1.724 4.962-4.17 6.036-2.448 1.068-4.615.719-6.199-.62-1.599-1.345-2.63-3.631-2.619-6.527 0-.588.442-.662.77-.536 2.177.817 3.98 1.521 5.486 2.926-.652-3.323.942-6.703 1.973-9.208.177-.448.63-.462.911-.197zm5.839 28.203c.839 3.63.276 6.765-1.324 8.896-1.588 2.109-4.192 3.167-6.817 2.693-2.631-.475-4.24-1.969-4.812-3.959-.578-2.005-.167-4.485 1.454-6.879.328-.486.738-.303.942-.017 1.348 1.886 2.457 3.474 2.932 5.479 1.302-3.124 4.506-5.046 6.756-6.557.4-.271.78-.031.869.344zm-5.792 14.464c-.797 3.64-2.646 6.229-5.006 7.468-2.338 1.229-5.145 1.068-7.316-.489-2.173-1.552-2.986-3.588-2.647-5.635.333-2.057 1.771-4.121 4.262-5.595.505-.301.796.043.859.386.412 2.286.729 4.198.297 6.209 2.516-2.267 6.235-2.625 8.916-3.032.473-.068.717.308.635.688z"/>
  <circle cx="44.981" cy="73.797" r="3.422" fill-rule="evenodd" clip-rule="evenodd"/>
  <path d="M71.084 23.813c-4.848-1.532-5.276-4.771-5.276-9.975 0-1.072.178-1.182 1-1.009 5.464 1.155 7.663 6.186 5.652 10.5-.333.708-.74.686-1.376.484zm11.443 8.421c2.09 3.089 2.699 6.213 1.97 8.776-.719 2.543-2.766 4.464-5.391 4.97-2.626.505-4.661-.313-5.912-1.958-1.26-1.667-1.771-4.125-1.124-6.943.135-.573.577-.552.875-.358 1.938 1.276 3.541 2.358 4.708 4.056.089-3.38 2.385-6.328 3.942-8.547.276-.397.719-.313.932.004zm-15.733 40.73c-2.412 2.844-5.257 4.265-7.923 4.255-2.64-.011-5.041-1.469-6.233-3.86-1.193-2.391-.953-4.573.296-6.219 1.265-1.661 3.5-2.812 6.386-2.948.589-.027.688.412.578.746-.704 2.213-1.317 4.046-2.642 5.624 3.281-.822 6.74.6 9.298 1.5.453.158.489.609.24.902zm-54.293-53.87c-2.713 2.552-3.989 5.468-3.844 8.126.146 2.64 1.719 4.962 4.172 6.036 2.448 1.068 4.615.719 6.194-.62 1.598-1.345 2.635-3.631 2.618-6.527 0-.588-.442-.662-.771-.536-2.172.817-3.974 1.521-5.484 2.926.656-3.323-.943-6.703-1.97-9.208-.179-.448-.633-.462-.915-.197zM6.663 47.297c-.833 3.63-.276 6.765 1.323 8.896 1.589 2.109 4.193 3.167 6.822 2.693 2.631-.475 4.235-1.969 4.808-3.959.578-2.005.167-4.485-1.453-6.879-.328-.486-.734-.303-.942-.017-1.35 1.886-2.458 3.474-2.927 5.479-1.303-3.124-4.511-5.046-6.762-6.557-.394-.271-.781-.031-.869.344zm5.792 14.464c.802 3.64 2.651 6.229 5.006 7.468 2.344 1.229 5.145 1.068 7.317-.489 2.177-1.552 2.984-3.588 2.651-5.635-.339-2.057-1.771-4.121-4.26-5.595-.505-.301-.797.043-.86.386-.411 2.286-.733 4.198-.302 6.209-2.516-2.267-6.234-2.625-8.912-3.032-.473-.068-.724.308-.64.688z"/>
  <path d="M18.877 23.813c4.849-1.532 5.281-4.771 5.281-9.975 0-1.072-.183-1.182-1-1.009-5.468 1.155-7.667 6.186-5.651 10.5.328.708.735.686 1.37.484zM7.434 32.234c-2.089 3.089-2.692 6.213-1.968 8.776.724 2.543 2.771 4.464 5.395 4.97 2.62.505 4.658-.313 5.912-1.958 1.26-1.667 1.765-4.125 1.12-6.943-.13-.573-.579-.552-.869-.358-1.943 1.276-3.548 2.358-4.71 4.056-.093-3.38-2.391-6.328-3.943-8.547-.276-.397-.718-.313-.937.004zm15.734 40.73c2.412 2.844 5.26 4.265 7.921 4.255 2.641-.011 5.048-1.469 6.24-3.86 1.193-2.391.948-4.573-.303-6.219-1.265-1.661-3.495-2.812-6.386-2.948-.588-.027-.681.412-.577.746.708 2.213 1.317 4.046 2.646 5.624-3.287-.822-6.739.6-9.296 1.5-.452.158-.495.609-.245.902z"/>
</svg>